<svg width="15" height="9" viewBox="0 0 15 9" fill="none" xmlns="http://www.w3.org/2000/svg">
<path d="M14.5611 0.43968C14.4218 0.30029 14.2564 0.189715 14.0744 0.114273C13.8923 0.0388304 13.6972 0 13.5001 0C13.3031 0 13.1079 0.0388304 12.9259 0.114273C12.7438 0.189715 12.5784 0.30029 12.4391 0.43968L7.85313 5.02468C7.75936 5.11842 7.63221 5.17107 7.49963 5.17107C7.36704 5.17107 7.23989 5.11842 7.14613 5.02468L2.56113 0.43968C2.27986 0.158285 1.89834 0.000146217 1.50048 5.24521e-05C1.10262 -4.13131e-05 0.721021 0.157917 0.439627 0.439179C0.158232 0.720441 9.38129e-05 1.10197 4.17261e-08 1.49983C-9.37294e-05 1.89768 0.157865 2.27929 0.439127 2.56068L5.02513 7.14668C5.35014 7.47172 5.73599 7.72956 6.16065 7.90548C6.58531 8.08139 7.04047 8.17193 7.50013 8.17193C7.95978 8.17193 8.41494 8.08139 8.8396 7.90548C9.26426 7.72956 9.65012 7.47172 9.97513 7.14668L14.5611 2.56068C14.8423 2.27939 15.0003 1.89793 15.0003 1.50018C15.0003 1.10243 14.8423 0.720971 14.5611 0.43968Z" fill="white"/>
</svg>
