<svg width="15" height="9" viewBox="0 0 15 9" fill="none" xmlns="http://www.w3.org/2000/svg">
<path d="M14.5615 5.5772L9.97548 0.992197C9.30885 0.355366 8.42241 0 7.50048 0C6.57856 0 5.69211 0.355366 5.02548 0.992197L0.439481 5.5772C0.158086 5.85859 0 6.24024 0 6.6382C0 7.03615 0.158086 7.4178 0.439481 7.6992C0.720876 7.98059 1.10253 8.13868 1.50048 8.13868C1.89843 8.13868 2.28009 7.98059 2.56148 7.6992L7.14748 3.1132C7.24124 3.01946 7.3684 2.9668 7.50098 2.9668C7.63356 2.9668 7.76072 3.01946 7.85448 3.1132L12.4395 7.6992C12.7209 7.98059 13.1025 8.13868 13.5005 8.13868C13.8984 8.13868 14.2801 7.98059 14.5615 7.6992C14.8429 7.4178 15.001 7.03615 15.001 6.6382C15.001 6.24024 14.8429 5.85859 14.5615 5.5772Z" fill="white"/>
</svg>
