<svg width="16" height="16" viewBox="0 0 16 16" fill="currentColor" xmlns="http://www.w3.org/2000/svg">
<path d="M15.5138 6.27886C14.4798 4.59486 12.1278 1.76953 7.99979 1.76953C3.87179 1.76953 1.51979 4.59486 0.48579 6.27886C0.166142 6.79587 -0.00317383 7.39169 -0.00317383 7.99953C-0.00317383 8.60737 0.166142 9.20319 0.48579 9.7202C1.51979 11.4042 3.87179 14.2295 7.99979 14.2295C12.1278 14.2295 14.4798 11.4042 15.5138 9.7202C15.8334 9.20319 16.0028 8.60737 16.0028 7.99953C16.0028 7.39169 15.8334 6.79587 15.5138 6.27886ZM14.3771 9.0222C13.4891 10.4662 11.4791 12.8962 7.99979 12.8962C4.52046 12.8962 2.51046 10.4662 1.62246 9.0222C1.43255 8.7149 1.33196 8.36078 1.33196 7.99953C1.33196 7.63828 1.43255 7.28417 1.62246 6.97686C2.51046 5.53286 4.52046 3.10286 7.99979 3.10286C11.4791 3.10286 13.4891 5.5302 14.3771 6.97686C14.567 7.28417 14.6676 7.63828 14.6676 7.99953C14.6676 8.36078 14.567 8.7149 14.3771 9.0222Z" fill="currentColor"/>
<path d="M8.00008 4.66675C7.34081 4.66675 6.69635 4.86224 6.14818 5.22852C5.60002 5.59479 5.17278 6.11538 4.92048 6.72447C4.66819 7.33356 4.60218 8.00378 4.7308 8.65038C4.85942 9.29699 5.17689 9.89093 5.64306 10.3571C6.10924 10.8233 6.70318 11.1407 7.34978 11.2694C7.99639 11.398 8.66661 11.332 9.27569 11.0797C9.88478 10.8274 10.4054 10.4001 10.7716 9.85198C11.1379 9.30382 11.3334 8.65935 11.3334 8.00008C11.3324 7.11635 10.9808 6.26912 10.3559 5.64423C9.73104 5.01934 8.88381 4.66781 8.00008 4.66675ZM8.00008 10.0001C7.60452 10.0001 7.21784 9.88278 6.88894 9.66302C6.56004 9.44326 6.3037 9.1309 6.15232 8.76545C6.00095 8.4 5.96134 7.99786 6.03851 7.6099C6.11568 7.22194 6.30616 6.86557 6.58587 6.58587C6.86557 6.30616 7.22194 6.11568 7.6099 6.03851C7.99786 5.96134 8.4 6.00095 8.76545 6.15232C9.1309 6.3037 9.44326 6.56004 9.66302 6.88894C9.88279 7.21784 10.0001 7.60452 10.0001 8.00008C10.0001 8.53051 9.78937 9.03922 9.4143 9.4143C9.03922 9.78937 8.53052 10.0001 8.00008 10.0001Z" fill="currentColor"/>
</svg>
