<svg width="16" height="15" viewBox="0 0 16 15" fill="none" xmlns="http://www.w3.org/2000/svg">
<path d="M15.5137 5.60247C14.9118 4.61696 14.1527 3.73664 13.2663 2.99647L15.133 1.12981C15.2544 1.00407 15.3216 0.835672 15.3201 0.660874C15.3186 0.486076 15.2485 0.318868 15.1249 0.195262C15.0013 0.0716568 14.8341 0.00154415 14.6593 2.52017e-05C14.4845 -0.00149374 14.3161 0.0657026 14.1903 0.187141L12.1603 2.21981C10.9019 1.47236 9.46328 1.08278 7.99967 1.09314C3.87233 1.09314 1.52033 3.91847 0.485668 5.60247C0.16602 6.11948 -0.0032959 6.7153 -0.0032959 7.32314C-0.0032959 7.93098 0.16602 8.5268 0.485668 9.04381C1.08751 10.0293 1.84666 10.9096 2.733 11.6498L0.866335 13.5165C0.802661 13.578 0.751873 13.6515 0.716934 13.7329C0.681994 13.8142 0.663604 13.9017 0.662834 13.9902C0.662065 14.0787 0.678933 14.1665 0.712454 14.2484C0.745974 14.3304 0.795476 14.4048 0.858071 14.4674C0.920667 14.53 0.995101 14.5795 1.07703 14.613C1.15896 14.6465 1.24675 14.6634 1.33527 14.6626C1.42379 14.6619 1.51127 14.6435 1.5926 14.6085C1.67394 14.5736 1.7475 14.5228 1.809 14.4591L3.84367 12.4245C5.10051 13.1718 6.53745 13.562 7.99967 13.5531C12.127 13.5531 14.479 10.7278 15.5137 9.04381C15.8333 8.5268 16.0026 7.93098 16.0026 7.32314C16.0026 6.7153 15.8333 6.11948 15.5137 5.60247ZM1.62167 8.34581C1.43176 8.0385 1.33117 7.68439 1.33117 7.32314C1.33117 6.96189 1.43176 6.60778 1.62167 6.30047C2.511 4.85647 4.521 2.42647 7.99967 2.42647C9.10652 2.42027 10.1978 2.68703 11.177 3.20314L9.835 4.54514C9.19496 4.12021 8.42761 3.92981 7.66316 4.00624C6.89871 4.08267 6.18425 4.42123 5.641 4.96448C5.09776 5.50772 4.7592 6.22218 4.68277 6.98663C4.60633 7.75108 4.79674 8.51843 5.22167 9.15847L3.68167 10.6985C2.86507 10.0383 2.16823 9.24244 1.62167 8.34581ZM9.99967 7.32314C9.99967 7.85357 9.78895 8.36228 9.41388 8.73736C9.03881 9.11243 8.5301 9.32314 7.99967 9.32314C7.70268 9.32199 7.4098 9.25362 7.143 9.12314L9.79967 6.46647C9.93014 6.73327 9.99852 7.02615 9.99967 7.32314ZM5.99967 7.32314C5.99967 6.79271 6.21038 6.284 6.58545 5.90893C6.96053 5.53385 7.46924 5.32314 7.99967 5.32314C8.29666 5.32429 8.58954 5.39267 8.85633 5.52314L6.19967 8.17981C6.06919 7.91301 6.00082 7.62013 5.99967 7.32314ZM14.3777 8.34581C13.4883 9.78981 11.4783 12.2198 7.99967 12.2198C6.89282 12.226 5.80151 11.9593 4.82233 11.4431L6.16433 10.1011C6.80438 10.5261 7.57173 10.7165 8.33618 10.64C9.10063 10.5636 9.81509 10.225 10.3583 9.68181C10.9016 9.13856 11.2401 8.4241 11.3166 7.65965C11.393 6.8952 11.2026 6.12785 10.7777 5.48781L12.3177 3.94781C13.1343 4.608 13.8311 5.40384 14.3777 6.30047C14.5676 6.60778 14.6682 6.96189 14.6682 7.32314C14.6682 7.68439 14.5676 8.0385 14.3777 8.34581Z" fill="#667085"/>
</svg>
