<svg width="20" height="20" viewBox="0 0 20 20" fill="none" xmlns="http://www.w3.org/2000/svg">
<path d="M10 20C11.9778 20 13.9112 19.4135 15.5557 18.3147C17.2002 17.2159 18.4819 15.6541 19.2388 13.8268C19.9957 11.9996 20.1937 9.98891 19.8079 8.0491C19.422 6.10929 18.4696 4.32746 17.0711 2.92894C15.6725 1.53041 13.8907 0.578004 11.9509 0.192152C10.0111 -0.193701 8.00043 0.00433286 6.17317 0.761209C4.3459 1.51809 2.78412 2.79981 1.6853 4.4443C0.58649 6.08879 0 8.02219 0 10C0.00286757 12.6513 1.05736 15.1932 2.9321 17.0679C4.80684 18.9426 7.34872 19.9971 10 20ZM10 4.16667C10.2472 4.16667 10.4889 4.23998 10.6945 4.37733C10.9 4.51469 11.0602 4.70991 11.1549 4.93832C11.2495 5.16672 11.2742 5.41806 11.226 5.66053C11.1778 5.90301 11.0587 6.12574 10.8839 6.30055C10.7091 6.47537 10.4863 6.59442 10.2439 6.64265C10.0014 6.69088 9.75005 6.66613 9.52165 6.57152C9.29324 6.47691 9.09801 6.3167 8.96066 6.11113C8.82331 5.90557 8.75 5.6639 8.75 5.41667C8.75 5.08515 8.8817 4.76721 9.11612 4.53279C9.35054 4.29837 9.66848 4.16667 10 4.16667ZM9.16667 8.33334H10C10.442 8.33334 10.866 8.50893 11.1785 8.82149C11.4911 9.13405 11.6667 9.55798 11.6667 10V15C11.6667 15.221 11.5789 15.433 11.4226 15.5893C11.2663 15.7455 11.0543 15.8333 10.8333 15.8333C10.6123 15.8333 10.4004 15.7455 10.2441 15.5893C10.0878 15.433 10 15.221 10 15V10H9.16667C8.94565 10 8.73369 9.91221 8.57741 9.75593C8.42113 9.59965 8.33333 9.38768 8.33333 9.16667C8.33333 8.94566 8.42113 8.7337 8.57741 8.57742C8.73369 8.42114 8.94565 8.33334 9.16667 8.33334Z" fill="#6A749C"/>
</svg>
