<svg width="16" height="16" viewBox="0 0 16 16" fill="none" xmlns="http://www.w3.org/2000/svg">
<path d="M12.6667 3.99992H8.66667V1.99992C8.66667 1.82311 8.59643 1.65354 8.4714 1.52851C8.34638 1.40349 8.17681 1.33325 8 1.33325C7.82319 1.33325 7.65362 1.40349 7.5286 1.52851C7.40357 1.65354 7.33333 1.82311 7.33333 1.99992V3.99992H3.33333C2.4496 4.00098 1.60237 4.35251 0.97748 4.9774C0.352588 5.60229 0.00105857 6.44952 0 7.33325L0 9.99992C0.00105857 10.8836 0.352588 11.7309 0.97748 12.3558C1.60237 12.9807 2.4496 13.3322 3.33333 13.3333H12.6667C13.5504 13.3322 14.3976 12.9807 15.0225 12.3558C15.6474 11.7309 15.9989 10.8836 16 9.99992V7.33325C15.9989 6.44952 15.6474 5.60229 15.0225 4.9774C14.3976 4.35251 13.5504 4.00098 12.6667 3.99992ZM14.6667 9.99992C14.6667 10.5304 14.456 11.0391 14.0809 11.4141C13.7058 11.7892 13.1971 11.9999 12.6667 11.9999H3.33333C2.8029 11.9999 2.29419 11.7892 1.91912 11.4141C1.54405 11.0391 1.33333 10.5304 1.33333 9.99992V7.33325C1.33333 6.80282 1.54405 6.29411 1.91912 5.91904C2.29419 5.54397 2.8029 5.33325 3.33333 5.33325H12.6667C13.1971 5.33325 13.7058 5.54397 14.0809 5.91904C14.456 6.29411 14.6667 6.80282 14.6667 7.33325V9.99992Z" fill="#151A2D"/>
<path d="M10 9.33325H6.00004C5.82323 9.33325 5.65366 9.40349 5.52864 9.52851C5.40361 9.65354 5.33337 9.82311 5.33337 9.99992C5.33337 10.1767 5.40361 10.3463 5.52864 10.4713C5.65366 10.5963 5.82323 10.6666 6.00004 10.6666H10C10.1769 10.6666 10.3464 10.5963 10.4714 10.4713C10.5965 10.3463 10.6667 10.1767 10.6667 9.99992C10.6667 9.82311 10.5965 9.65354 10.4714 9.52851C10.3464 9.40349 10.1769 9.33325 10 9.33325Z" fill="#151A2D"/>
<path d="M6.66667 8.00008H7.33333C7.51014 8.00008 7.67971 7.92984 7.80474 7.80482C7.92976 7.67979 8 7.51023 8 7.33341C8 7.1566 7.92976 6.98703 7.80474 6.86201C7.67971 6.73699 7.51014 6.66675 7.33333 6.66675H6.66667C6.48986 6.66675 6.32029 6.73699 6.19526 6.86201C6.07024 6.98703 6 7.1566 6 7.33341C6 7.51023 6.07024 7.67979 6.19526 7.80482C6.32029 7.92984 6.48986 8.00008 6.66667 8.00008Z" fill="#151A2D"/>
<path d="M12.6667 6.66675H10C9.82323 6.66675 9.65366 6.73699 9.52864 6.86201C9.40361 6.98703 9.33337 7.1566 9.33337 7.33341C9.33337 7.51023 9.40361 7.67979 9.52864 7.80482C9.65366 7.92984 9.82323 8.00008 10 8.00008H12.6667C12.8435 8.00008 13.0131 7.92984 13.1381 7.80482C13.2631 7.67979 13.3334 7.51023 13.3334 7.33341C13.3334 7.1566 13.2631 6.98703 13.1381 6.86201C13.0131 6.73699 12.8435 6.66675 12.6667 6.66675Z" fill="#151A2D"/>
<path d="M3.99996 6.66675H3.33329C3.15648 6.66675 2.98691 6.73699 2.86189 6.86201C2.73686 6.98703 2.66663 7.1566 2.66663 7.33341C2.66663 7.51023 2.73686 7.67979 2.86189 7.80482C2.98691 7.92984 3.15648 8.00008 3.33329 8.00008H3.99996C4.17677 8.00008 4.34634 7.92984 4.47136 7.80482C4.59639 7.67979 4.66663 7.51023 4.66663 7.33341C4.66663 7.1566 4.59639 6.98703 4.47136 6.86201C4.34634 6.73699 4.17677 6.66675 3.99996 6.66675Z" fill="#151A2D"/>
<path d="M3.33329 10.6666C3.70148 10.6666 3.99996 10.3681 3.99996 9.99992C3.99996 9.63173 3.70148 9.33325 3.33329 9.33325C2.9651 9.33325 2.66663 9.63173 2.66663 9.99992C2.66663 10.3681 2.9651 10.6666 3.33329 10.6666Z" fill="#151A2D"/>
<path d="M12.6667 10.6666C13.0349 10.6666 13.3333 10.3681 13.3333 9.99992C13.3333 9.63173 13.0349 9.33325 12.6667 9.33325C12.2985 9.33325 12 9.63173 12 9.99992C12 10.3681 12.2985 10.6666 12.6667 10.6666Z" fill="#151A2D"/>
</svg>
