<svg width="16" height="16" viewBox="0 0 16 16" fill="FF8811" xmlns="http://www.w3.org/2000/svg">
<g clip-path="url(#clip0_25462_1489)">
<path d="M15.182 5.1475C14.8694 4.78724 14.4831 4.49836 14.0491 4.30041C13.6151 4.10246 13.1437 4.00007 12.6667 4.00017H10.0074L10.2314 2.6395C10.3106 2.16034 10.215 1.66866 9.96195 1.25413C9.70889 0.839599 9.31525 0.529845 8.85284 0.381365C8.39042 0.232884 7.89004 0.255571 7.44296 0.445287C6.99588 0.635003 6.63188 0.979107 6.41737 1.41484L5.33337 3.6115V14.0002H12.2C13.0023 13.9969 13.7768 13.7057 14.3826 13.1796C14.9883 12.6535 15.3851 11.9274 15.5007 11.1335L15.9707 7.80017C16.0372 7.32732 16.0011 6.84571 15.8651 6.38801C15.729 5.93031 15.496 5.50724 15.182 5.1475Z" fill="#FF8811"/>
<path d="M0 7.33333V10.6667C0.00105857 11.5504 0.352588 12.3976 0.97748 13.0225C1.60237 13.6474 2.4496 13.9989 3.33333 14H4V4H3.33333C2.4496 4.00106 1.60237 4.35259 0.97748 4.97748C0.352588 5.60237 0.00105857 6.4496 0 7.33333Z" fill="#FF8811"/>
</g>
<defs>
<clipPath id="clip0_25462_1489">
<rect width="16" height="16" fill="white"/>
</clipPath>
</defs>
</svg>
