<svg width="16" height="16" viewBox="0 0 16 16" fill="none" xmlns="http://www.w3.org/2000/svg">
<path d="M15.2353 0.706709C14.7821 0.254173 14.1678 0 13.5273 0C12.8869 0 12.2726 0.254173 11.8193 0.706709L0.976677 11.5494C0.666178 11.8581 0.419985 12.2254 0.252342 12.6299C0.0846994 13.0344 -0.00106532 13.4682 9.98748e-06 13.906V15.2747C9.98748e-06 15.4515 0.0702479 15.6211 0.195272 15.7461C0.320296 15.8711 0.489866 15.9414 0.666677 15.9414H2.03534C2.47319 15.9426 2.90692 15.857 3.31145 15.6895C3.71597 15.5219 4.08325 15.2758 4.39201 14.9654L15.2353 4.12204C15.6877 3.66884 15.9417 3.05469 15.9417 2.41438C15.9417 1.77407 15.6877 1.15991 15.2353 0.706709ZM3.44934 14.0227C3.07335 14.3962 2.56532 14.6065 2.03534 14.608H1.33334V13.906C1.33267 13.6433 1.38411 13.3831 1.4847 13.1403C1.58529 12.8976 1.73302 12.6773 1.91934 12.492L10.148 4.26338L11.6813 5.79671L3.44934 14.0227ZM14.292 3.17938L12.6213 4.85071L11.088 3.32071L12.7593 1.64938C12.86 1.54891 12.9795 1.46927 13.111 1.41498C13.2424 1.3607 13.3833 1.33284 13.5255 1.33299C13.6678 1.33315 13.8086 1.36131 13.9399 1.41588C14.0712 1.47046 14.1905 1.55036 14.291 1.65104C14.3915 1.75172 14.4711 1.8712 14.5254 2.00267C14.5797 2.13413 14.6076 2.27499 14.6074 2.41722C14.6072 2.55945 14.5791 2.70025 14.5245 2.8316C14.4699 2.96294 14.39 3.08225 14.2893 3.18271L14.292 3.17938Z" fill="white"/>
</svg>
