<svg viewBox="0 0 36 36" preserveAspectRatio="xMidYMid meet" fill="none" xmlns="http://www.w3.org/2000/svg">
<g clip-path="url(#clip0_22051_5115)">
<path d="M29.9235 8.304L24.6975 3.075C22.713 1.092 20.076 0 17.2725 0H10.5C6.3645 0 3 3.3645 3 7.5V28.5C3 32.6355 6.3645 36 10.5 36H25.5C29.6355 36 33 32.6355 33 28.5V15.7275C33 12.921 31.9065 10.287 29.9235 8.304ZM27.8025 10.4265C28.2795 10.902 28.683 11.4315 29.01 12.0015H22.4985C21.6705 12.0015 20.9985 11.328 20.9985 10.5015V3.9885C21.5685 4.3155 22.098 4.719 22.575 5.196L27.801 10.425L27.8025 10.4265ZM30 28.5015C30 30.9825 27.981 33.0015 25.5 33.0015H10.5C8.019 33.0015 6 30.9825 6 28.5015V7.5C6 5.019 8.019 3 10.5 3H17.2725C17.517 3 17.76 3.012 18 3.0345V10.5C18 12.981 20.019 15 22.5 15H29.9655C29.988 15.24 30 15.483 30 15.7275V28.5015ZM23.5605 24.159C24.147 24.744 24.147 25.6935 23.5605 26.28L21.141 28.701C20.2755 29.5665 19.137 30 18 30C16.863 30 15.7245 29.5665 14.859 28.701L12.4395 26.28C11.853 25.6935 11.853 24.744 12.4395 24.159C13.026 23.5725 13.974 23.5725 14.5605 24.159L16.5 26.0985V19.5015C16.5 18.6735 17.1705 18.0015 18 18.0015C18.8295 18.0015 19.5 18.6735 19.5 19.5015V26.0985L21.4395 24.159C22.026 23.5725 22.974 23.5725 23.5605 24.159Z" fill="white"/>
</g>
<defs>
<clipPath id="clip0_22051_5115">
<rect width="36" height="36" fill="white"/>
</clipPath>
</defs>
</svg>
